<svg width="1199" height="1198" viewBox="0 0 1199 1198" fill="none" xmlns="http://www.w3.org/2000/svg">
<g opacity="0.5">
<path d="M205.257 787.753L177.752 760.498C174.174 756.953 168.096 759.526 168.152 764.563L169.771 910.694C169.826 915.684 175.86 918.144 179.389 914.616L311.903 782.101C320.018 773.986 324.484 762.919 324.272 751.444L323.181 692.17C323.09 687.213 317.104 684.782 313.582 688.271L213.188 787.753C210.992 789.929 207.453 789.929 205.257 787.753Z" stroke="white" stroke-width="1.42178"/>
<path d="M361.743 871.674L389.4 899.079C392.956 902.603 399 900.084 399 895.077L399 748.944C399 743.924 392.931 741.41 389.382 744.96L255.871 878.47C247.865 886.476 243.407 897.361 243.496 908.683L243.955 967.061C243.995 972.047 250.014 974.528 253.555 971.019L353.812 871.674C356.008 869.498 359.547 869.498 361.743 871.674Z" stroke="white" stroke-width="1.42178"/>
<path d="M735.257 787.753L707.752 760.498C704.174 756.953 698.096 759.526 698.152 764.563L699.771 910.694C699.826 915.684 705.86 918.144 709.389 914.616L841.903 782.101C850.018 773.986 854.484 762.919 854.272 751.444L853.181 692.17C853.09 687.213 847.104 684.782 843.582 688.271L743.188 787.753C740.992 789.929 737.453 789.929 735.257 787.753Z" stroke="white" stroke-width="1.42178"/>
<path d="M891.743 871.674L919.4 899.079C922.956 902.603 929 900.084 929 895.077L929 748.944C929 743.924 922.931 741.41 919.382 744.96L785.871 878.47C777.865 886.476 773.407 897.361 773.496 908.683L773.955 967.061C773.995 972.047 780.014 974.528 783.555 971.019L883.812 871.674C886.008 869.498 889.547 869.498 891.743 871.674Z" stroke="white" stroke-width="1.42178"/>
<path d="M358.257 556.753L330.752 529.498C327.174 525.953 321.096 528.526 321.152 533.563L322.771 679.694C322.826 684.684 328.86 687.144 332.389 683.616L464.903 551.101C473.018 542.986 477.484 531.919 477.272 520.444L476.181 461.17C476.09 456.213 470.104 453.782 466.582 457.271L366.188 556.753C363.992 558.929 360.453 558.929 358.257 556.753Z" stroke="white" stroke-width="1.42178"/>
<path d="M514.743 640.674L542.4 668.079C545.956 671.603 552 669.084 552 664.077L552 517.944C552 512.924 545.931 510.41 542.382 513.96L408.871 647.47C400.865 655.476 396.407 666.361 396.496 677.683L396.955 736.061C396.995 741.047 403.014 743.528 406.555 740.019L506.812 640.674C509.008 638.498 512.547 638.498 514.743 640.674Z" stroke="white" stroke-width="1.42178"/>
<path d="M888.257 556.753L860.752 529.498C857.174 525.953 851.096 528.526 851.152 533.563L852.771 679.694C852.826 684.684 858.86 687.144 862.389 683.616L994.903 551.101C1003.02 542.986 1007.48 531.919 1007.27 520.444L1006.18 461.17C1006.09 456.213 1000.1 453.782 996.582 457.271L896.188 556.753C893.992 558.929 890.453 558.929 888.257 556.753Z" stroke="white" stroke-width="1.42178"/>
<path d="M1044.74 640.674L1072.4 668.079C1075.96 671.603 1082 669.084 1082 664.077L1082 517.944C1082 512.924 1075.93 510.41 1072.38 513.96L938.871 647.47C930.865 655.476 926.407 666.361 926.496 677.683L926.955 736.061C926.995 741.047 933.014 743.528 936.555 740.019L1036.81 640.674C1039.01 638.498 1042.55 638.498 1044.74 640.674Z" stroke="white" stroke-width="1.42178"/>
<path d="M474.257 759.753L446.752 732.498C443.174 728.953 437.096 731.526 437.152 736.563L438.771 882.694C438.826 887.684 444.86 890.144 448.389 886.616L580.903 754.101C589.018 745.986 593.484 734.919 593.272 723.444L592.181 664.17C592.09 659.213 586.104 656.782 582.582 660.271L482.188 759.753C479.992 761.929 476.453 761.929 474.257 759.753Z" stroke="white" stroke-width="1.42178"/>
<path d="M630.743 843.674L658.4 871.079C661.956 874.603 668 872.084 668 867.077L668 720.944C668 715.924 661.931 713.41 658.382 716.96L524.871 850.47C516.865 858.476 512.407 869.361 512.496 880.683L512.955 939.061C512.995 944.047 519.014 946.528 522.555 943.019L622.812 843.674C625.008 841.498 628.547 841.498 630.743 843.674Z" stroke="white" stroke-width="1.42178"/>
<path d="M1004.26 759.753L976.752 732.498C973.174 728.953 967.096 731.526 967.152 736.563L968.771 882.694C968.826 887.684 974.86 890.144 978.389 886.616L1110.9 754.101C1119.02 745.986 1123.48 734.919 1123.27 723.444L1122.18 664.17C1122.09 659.213 1116.1 656.782 1112.58 660.271L1012.19 759.753C1009.99 761.929 1006.45 761.929 1004.26 759.753Z" stroke="white" stroke-width="1.42178"/>
<path d="M1160.74 843.674L1188.4 871.079C1191.96 874.603 1198 872.084 1198 867.077L1198 720.944C1198 715.924 1191.93 713.41 1188.38 716.96L1054.87 850.47C1046.86 858.476 1042.41 869.361 1042.5 880.683L1042.96 939.061C1042.99 944.047 1049.01 946.528 1052.56 943.019L1152.81 843.674C1155.01 841.498 1158.55 841.498 1160.74 843.674Z" stroke="white" stroke-width="1.42178"/>
<path d="M280.257 331.753L252.752 304.498C249.174 300.953 243.096 303.526 243.152 308.563L244.771 454.694C244.826 459.684 250.86 462.144 254.389 458.616L386.903 326.101C395.018 317.986 399.484 306.919 399.272 295.444L398.181 236.17C398.09 231.213 392.104 228.782 388.582 232.271L288.188 331.753C285.992 333.929 282.453 333.929 280.257 331.753Z" stroke="white" stroke-width="1.42178"/>
<path d="M436.743 415.674L464.4 443.079C467.956 446.603 474 444.084 474 439.077L474 292.944C474 287.924 467.931 285.41 464.382 288.96L330.871 422.47C322.865 430.476 318.407 441.361 318.496 452.683L318.955 511.061C318.995 516.047 325.014 518.528 328.555 515.019L428.812 415.674C431.008 413.498 434.547 413.498 436.743 415.674Z" stroke="white" stroke-width="1.42178"/>
<path d="M202.257 108.753L174.752 81.4983C171.174 77.9527 165.096 80.5259 165.152 85.5628L166.771 231.694C166.826 236.684 172.86 239.144 176.389 235.616L308.903 103.101C317.018 94.9862 321.484 83.9191 321.272 72.4443L320.181 13.1699C320.09 8.21338 314.104 5.78214 310.582 9.27146L210.188 108.753C207.992 110.929 204.453 110.929 202.257 108.753Z" stroke="white" stroke-width="1.42178"/>
<path d="M358.743 192.674L386.4 220.079C389.956 223.603 396 221.084 396 216.077L396 69.9437C396 64.9242 389.931 62.4104 386.382 65.9597L252.871 199.47C244.865 207.476 240.407 218.361 240.496 229.683L240.955 288.061C240.995 293.047 247.014 295.528 250.555 292.019L350.812 192.674C353.008 190.498 356.547 190.498 358.743 192.674Z" stroke="white" stroke-width="1.42178"/>
<path d="M112.257 556.753L84.7516 529.498C81.1735 525.953 75.0963 528.526 75.1521 533.563L76.7708 679.694C76.826 684.684 82.8604 687.144 86.3885 683.616L218.903 551.101C227.018 542.986 231.484 531.919 231.272 520.444L230.181 461.17C230.09 456.213 224.104 453.782 220.582 457.271L120.188 556.753C117.992 558.929 114.453 558.929 112.257 556.753Z" stroke="white" stroke-width="1.42178"/>
<path d="M268.743 640.674L296.4 668.079C299.956 671.603 306 669.084 306 664.077L306 517.944C306 512.924 299.931 510.41 296.382 513.96L162.871 647.47C154.865 655.476 150.407 666.361 150.496 677.683L150.955 736.061C150.995 741.047 157.014 743.528 160.555 740.019L260.812 640.674C263.008 638.498 266.547 638.498 268.743 640.674Z" stroke="white" stroke-width="1.42178"/>
<path d="M642.257 556.753L614.752 529.498C611.174 525.953 605.096 528.526 605.152 533.563L606.771 679.694C606.826 684.684 612.86 687.144 616.389 683.616L748.903 551.101C757.018 542.986 761.484 531.919 761.272 520.444L760.181 461.17C760.09 456.213 754.104 453.782 750.582 457.271L650.188 556.753C647.992 558.929 644.453 558.929 642.257 556.753Z" stroke="white" stroke-width="1.42178"/>
<path d="M798.743 640.674L826.4 668.079C829.956 671.603 836 669.084 836 664.077L836 517.944C836 512.924 829.931 510.41 826.382 513.96L692.871 647.47C684.865 655.476 680.407 666.361 680.496 677.683L680.955 736.061C680.995 741.047 687.014 743.528 690.555 740.019L790.812 640.674C793.008 638.498 796.547 638.498 798.743 640.674Z" stroke="white" stroke-width="1.42178"/>
<path d="M322.257 1004.75L294.752 977.498C291.174 973.953 285.096 976.526 285.152 981.563L286.771 1127.69C286.826 1132.68 292.86 1135.14 296.389 1131.62L428.903 999.101C437.018 990.986 441.484 979.919 441.272 968.444L440.181 909.17C440.09 904.213 434.104 901.782 430.582 905.271L330.188 1004.75C327.992 1006.93 324.453 1006.93 322.257 1004.75Z" stroke="white" stroke-width="1.42178"/>
<path d="M478.743 1088.67L506.4 1116.08C509.956 1119.6 516 1117.08 516 1112.08L516 965.944C516 960.924 509.931 958.41 506.382 961.96L372.871 1095.47C364.865 1103.48 360.407 1114.36 360.496 1125.68L360.955 1184.06C360.995 1189.05 367.014 1191.53 370.555 1188.02L470.812 1088.67C473.008 1086.5 476.547 1086.5 478.743 1088.67Z" stroke="white" stroke-width="1.42178"/>
<path d="M852.257 1004.75L824.752 977.498C821.174 973.953 815.096 976.526 815.152 981.563L816.771 1127.69C816.826 1132.68 822.86 1135.14 826.389 1131.62L958.903 999.101C967.018 990.986 971.484 979.919 971.272 968.444L970.181 909.17C970.09 904.213 964.104 901.782 960.582 905.271L860.188 1004.75C857.992 1006.93 854.453 1006.93 852.257 1004.75Z" stroke="white" stroke-width="1.42178"/>
<path d="M1008.74 1088.67L1036.4 1116.08C1039.96 1119.6 1046 1117.08 1046 1112.08L1046 965.944C1046 960.924 1039.93 958.41 1036.38 961.96L902.871 1095.47C894.865 1103.48 890.407 1114.36 890.496 1125.68L890.955 1184.06C890.995 1189.05 897.014 1191.53 900.555 1188.02L1000.81 1088.67C1003.01 1086.5 1006.55 1086.5 1008.74 1088.67Z" stroke="white" stroke-width="1.42178"/>
<path d="M563.257 986.753L535.752 959.498C532.174 955.953 526.096 958.526 526.152 963.563L527.771 1109.69C527.826 1114.68 533.86 1117.14 537.389 1113.62L669.903 981.101C678.018 972.986 682.484 961.919 682.272 950.444L681.181 891.17C681.09 886.213 675.104 883.782 671.582 887.271L571.188 986.753C568.992 988.929 565.453 988.929 563.257 986.753Z" stroke="white" stroke-width="1.42178"/>
<path d="M719.743 1070.67L747.4 1098.08C750.956 1101.6 757 1099.08 757 1094.08L757 947.944C757 942.924 750.931 940.41 747.382 943.96L613.871 1077.47C605.865 1085.48 601.407 1096.36 601.496 1107.68L601.955 1166.06C601.995 1171.05 608.014 1173.53 611.555 1170.02L711.812 1070.67C714.008 1068.5 717.547 1068.5 719.743 1070.67Z" stroke="white" stroke-width="1.42178"/>
<path d="M38.2566 314.753L10.7516 287.498C7.17351 283.953 1.09627 286.526 1.15206 291.563L2.77078 437.694C2.82604 442.684 8.86045 445.144 12.3885 441.616L144.903 309.101C153.018 300.986 157.484 289.919 157.272 278.444L156.181 219.17C156.09 214.213 150.104 211.782 146.582 215.271L46.188 314.753C43.992 316.929 40.4526 316.929 38.2566 314.753Z" stroke="white" stroke-width="1.42178"/>
<path d="M194.743 398.674L222.4 426.079C225.956 429.603 232 427.084 232 422.077L232 275.944C232 270.924 225.931 268.41 222.382 271.96L88.8709 405.47C80.8648 413.476 76.4066 424.361 76.4957 435.683L76.9554 494.061C76.9946 499.047 83.0135 501.528 86.555 498.019L186.812 398.674C189.008 396.498 192.547 396.498 194.743 398.674Z" stroke="white" stroke-width="1.42178"/>
</g>
</svg>
