<svg width="17" height="17" viewBox="0 0 17 17" fill="none" xmlns="http://www.w3.org/2000/svg">
<path d="M6.14242 10.1503C6.14242 11.064 6.84367 11.8007 7.71492 11.8007H9.49283C10.2507 11.8007 10.867 11.1561 10.867 10.3628C10.867 9.4986 10.4916 9.19401 9.932 8.99568L7.07741 8.00402C6.51783 7.80568 6.14242 7.5011 6.14242 6.63693C6.14242 5.8436 6.75866 5.19902 7.51658 5.19902H9.2945C10.1657 5.19902 10.867 5.93568 10.867 6.84943M8.49984 4.24996V12.75M15.5832 8.49996C15.5832 12.412 12.4119 15.5833 8.49984 15.5833C4.58782 15.5833 1.4165 12.412 1.4165 8.49996C1.4165 4.58794 4.58782 1.41663 8.49984 1.41663C12.4119 1.41663 15.5832 4.58794 15.5832 8.49996Z" stroke="white" stroke-width="1.0625" stroke-linecap="round" stroke-linejoin="round"/>
</svg>
