<svg width="18" height="19" viewBox="0 0 18 19" fill="none" xmlns="http://www.w3.org/2000/svg">
<path d="M10.5 14C13.8137 14 16.5 11.3137 16.5 8C16.5 4.68629 13.8137 2 10.5 2C7.18629 2 4.5 4.68629 4.5 8C4.5 11.3137 7.18629 14 10.5 14Z" stroke="white" stroke-width="1.5" stroke-linecap="round"/>
<path d="M2.36743 8.75C1.81892 9.58817 1.5 10.5902 1.5 11.6666C1.5 14.6122 3.88783 17 6.83337 17C7.90985 17 8.91183 16.6811 9.75 16.1326" stroke="white" stroke-width="1.5" stroke-linecap="round"/>
<path d="M11.2387 5C11.2387 4.58579 10.9029 4.25 10.4887 4.25C10.0745 4.25 9.73869 4.58579 9.73869 5L11.2387 5ZM9.73869 11C9.73869 11.4142 10.0745 11.75 10.4887 11.75C10.9029 11.75 11.2387 11.4142 11.2387 11H9.73869ZM11.1179 6.81403C11.1993 7.22017 11.5945 7.48343 12.0006 7.40205C12.4068 7.32066 12.67 6.92544 12.5886 6.5193L11.1179 6.81403ZM9.73274 9.17335C9.64439 8.76867 9.2447 8.51224 8.84002 8.60059C8.43534 8.68895 8.17891 9.08863 8.26726 9.49331L9.73274 9.17335ZM10.4887 7.16371C10.0505 7.16371 9.90989 7.07861 9.88574 7.05936C9.88123 7.05576 9.87962 7.05505 9.87492 7.04325C9.86761 7.02488 9.85331 6.97559 9.85331 6.87667H8.35331C8.35331 7.35572 8.49541 7.86924 8.9506 8.23218C9.36725 8.56439 9.91938 8.66371 10.4887 8.66371V7.16371ZM9.85331 6.87667C9.85331 6.71488 10.0391 6.4168 10.4887 6.4168V4.9168C9.40799 4.9168 8.35331 5.70207 8.35331 6.87667H9.85331ZM11.25 9.12359C11.25 9.24027 11.2277 9.30704 11.2096 9.34352C11.1921 9.37871 11.1665 9.41026 11.1228 9.44134C11.0229 9.51231 10.8196 9.58346 10.4887 9.58346V11.0835C10.9925 11.0835 11.5448 10.9818 11.9919 10.6639C12.4771 10.3189 12.75 9.78103 12.75 9.12359H11.25ZM10.4887 8.66371C10.9345 8.66371 11.1087 8.74567 11.1639 8.78826C11.1757 8.79741 11.25 8.84245 11.25 9.12359H12.75C12.75 8.54053 12.5724 7.98063 12.0805 7.60089C11.6319 7.25459 11.0504 7.16371 10.4887 7.16371V8.66371ZM11.2387 5.6668L11.2387 5L9.73869 5L9.73869 5.6668L11.2387 5.6668ZM9.73869 10.3335V11H11.2387V10.3335H9.73869ZM10.4887 6.4168C10.8794 6.4168 11.0863 6.65641 11.1179 6.81403L12.5886 6.5193C12.3925 5.54073 11.4642 4.9168 10.4887 4.9168V6.4168ZM10.4887 9.58346C9.98655 9.58346 9.7605 9.30052 9.73274 9.17335L8.26726 9.49331C8.48762 10.5026 9.50019 11.0835 10.4887 11.0835V9.58346Z" fill="white"/>
</svg>
