<svg width="1425" height="1645" viewBox="0 0 1425 1645" fill="none" xmlns="http://www.w3.org/2000/svg">
<g opacity="0.1">
<path d="M993.743 1079.67L1021.25 1106.93C1024.83 1110.47 1030.9 1107.9 1030.85 1102.86L1029.23 956.732C1029.17 951.743 1023.14 949.283 1019.61 952.811L887.097 1085.33C878.981 1093.44 874.516 1104.51 874.727 1115.98L875.818 1175.26C875.909 1180.21 881.896 1182.64 885.417 1179.16L985.812 1079.67C988.008 1077.5 991.547 1077.5 993.743 1079.67Z" stroke="white" stroke-width="1.42178"/>
<path d="M837.257 995.753L809.6 968.348C806.043 964.823 800 967.343 800 972.35L800 1118.48C800 1123.5 806.069 1126.02 809.618 1122.47L943.129 988.956C951.135 980.95 955.593 970.066 955.504 958.744L955.044 900.366C955.005 895.38 948.986 892.899 945.445 896.408L845.188 995.753C842.992 997.929 839.453 997.929 837.257 995.753Z" stroke="white" stroke-width="1.42178"/>
<path d="M463.743 1079.67L491.248 1106.93C494.826 1110.47 500.903 1107.9 500.848 1102.86L499.229 956.732C499.174 951.743 493.139 949.283 489.611 952.811L357.097 1085.33C348.981 1093.44 344.516 1104.51 344.727 1115.98L345.818 1175.26C345.909 1180.21 351.896 1182.64 355.417 1179.16L455.812 1079.67C458.008 1077.5 461.547 1077.5 463.743 1079.67Z" stroke="white" stroke-width="1.42178"/>
<path d="M307.257 995.753L279.6 968.348C276.043 964.823 270 967.343 270 972.35L270 1118.48C270 1123.5 276.069 1126.02 279.618 1122.47L413.129 988.956C421.135 980.95 425.593 970.066 425.504 958.744L425.044 900.366C425.005 895.38 418.986 892.899 415.445 896.408L315.188 995.753C312.992 997.929 309.453 997.929 307.257 995.753Z" stroke="white" stroke-width="1.42178"/>
<path d="M840.743 1310.67L868.248 1337.93C871.826 1341.47 877.903 1338.9 877.847 1333.86L876.229 1187.73C876.173 1182.74 870.139 1180.28 866.611 1183.81L734.097 1316.33C725.981 1324.44 721.516 1335.51 721.727 1346.98L722.818 1406.26C722.909 1411.21 728.896 1413.64 732.417 1410.16L832.812 1310.67C835.008 1308.5 838.547 1308.5 840.743 1310.67Z" stroke="white" stroke-width="1.42178"/>
<path d="M684.257 1226.75L656.6 1199.35C653.043 1195.82 647 1198.34 647 1203.35L647 1349.48C647 1354.5 653.069 1357.02 656.618 1353.47L790.129 1219.96C798.135 1211.95 802.593 1201.07 802.504 1189.74L802.044 1131.37C802.005 1126.38 795.986 1123.9 792.445 1127.41L692.188 1226.75C689.992 1228.93 686.453 1228.93 684.257 1226.75Z" stroke="white" stroke-width="1.42178"/>
<path d="M310.743 1310.67L338.248 1337.93C341.826 1341.47 347.903 1338.9 347.847 1333.86L346.229 1187.73C346.174 1182.74 340.139 1180.28 336.611 1183.81L204.097 1316.33C195.981 1324.44 191.516 1335.51 191.727 1346.98L192.818 1406.26C192.909 1411.21 198.896 1413.64 202.417 1410.16L302.812 1310.67C305.008 1308.5 308.547 1308.5 310.743 1310.67Z" stroke="white" stroke-width="1.42178"/>
<path d="M154.257 1226.75L126.6 1199.35C123.043 1195.82 117 1198.34 117 1203.35L117 1349.48C117 1354.5 123.069 1357.02 126.618 1353.47L260.129 1219.96C268.135 1211.95 272.593 1201.07 272.504 1189.74L272.044 1131.37C272.005 1126.38 265.986 1123.9 262.445 1127.41L162.188 1226.75C159.992 1228.93 156.453 1228.93 154.257 1226.75Z" stroke="white" stroke-width="1.42178"/>
<path d="M724.743 1107.67L752.248 1134.93C755.826 1138.47 761.903 1135.9 761.848 1130.86L760.229 984.732C760.174 979.743 754.139 977.283 750.611 980.811L618.097 1113.33C609.981 1121.44 605.516 1132.51 605.727 1143.98L606.818 1203.26C606.909 1208.21 612.896 1210.64 616.417 1207.16L716.812 1107.67C719.008 1105.5 722.547 1105.5 724.743 1107.67Z" stroke="white" stroke-width="1.42178"/>
<path d="M568.257 1023.75L540.6 996.348C537.043 992.823 531 995.343 531 1000.35L531 1146.48C531 1151.5 537.069 1154.02 540.618 1150.47L674.129 1016.96C682.135 1008.95 686.593 998.066 686.504 986.744L686.044 928.366C686.005 923.38 679.986 920.899 676.445 924.408L576.188 1023.75C573.992 1025.93 570.453 1025.93 568.257 1023.75Z" stroke="white" stroke-width="1.42178"/>
<path d="M194.743 1107.67L222.248 1134.93C225.826 1138.47 231.903 1135.9 231.847 1130.86L230.229 984.732C230.174 979.743 224.139 977.283 220.611 980.811L88.0966 1113.33C79.9813 1121.44 75.516 1132.51 75.7272 1143.98L76.8182 1203.26C76.9094 1208.21 82.8957 1210.64 86.4171 1207.16L186.812 1107.67C189.008 1105.5 192.547 1105.5 194.743 1107.67Z" stroke="white" stroke-width="1.42178"/>
<path d="M38.2565 1023.75L10.5998 996.348C7.04313 992.823 0.999952 995.343 0.999951 1000.35L0.999925 1146.48C0.999924 1151.5 7.06871 1154.02 10.618 1150.47L144.129 1016.96C152.135 1008.95 156.593 998.066 156.504 986.744L156.044 928.366C156.005 923.38 149.986 920.899 146.445 924.408L46.188 1023.75C43.9919 1025.93 40.4526 1025.93 38.2565 1023.75Z" stroke="white" stroke-width="1.42178"/>
<path d="M918.743 1535.67L946.248 1562.93C949.826 1566.47 955.903 1563.9 955.847 1558.86L954.229 1412.73C954.173 1407.74 948.139 1405.28 944.611 1408.81L812.097 1541.33C803.981 1549.44 799.516 1560.51 799.727 1571.98L800.818 1631.26C800.909 1636.21 806.896 1638.64 810.417 1635.16L910.812 1535.67C913.008 1533.5 916.547 1533.5 918.743 1535.67Z" stroke="white" stroke-width="1.42178"/>
<path d="M762.257 1451.75L734.6 1424.35C731.043 1420.82 725 1423.34 725 1428.35L725 1574.48C725 1579.5 731.069 1582.02 734.618 1578.47L868.129 1444.96C876.135 1436.95 880.593 1426.07 880.504 1414.74L880.044 1356.37C880.005 1351.38 873.986 1348.9 870.445 1352.41L770.188 1451.75C767.992 1453.93 764.453 1453.93 762.257 1451.75Z" stroke="white" stroke-width="1.42178"/>
<path d="M1086.74 1310.67L1114.25 1337.93C1117.83 1341.47 1123.9 1338.9 1123.85 1333.86L1122.23 1187.73C1122.17 1182.74 1116.14 1180.28 1112.61 1183.81L980.097 1316.33C971.981 1324.44 967.516 1335.51 967.727 1346.98L968.818 1406.26C968.909 1411.21 974.896 1413.64 978.417 1410.16L1078.81 1310.67C1081.01 1308.5 1084.55 1308.5 1086.74 1310.67Z" stroke="white" stroke-width="1.42178"/>
<path d="M930.257 1226.75L902.6 1199.35C899.043 1195.82 893 1198.34 893 1203.35L893 1349.48C893 1354.5 899.069 1357.02 902.618 1353.47L1036.13 1219.96C1044.13 1211.95 1048.59 1201.07 1048.5 1189.74L1048.04 1131.37C1048 1126.38 1041.99 1123.9 1038.44 1127.41L938.188 1226.75C935.992 1228.93 932.453 1228.93 930.257 1226.75Z" stroke="white" stroke-width="1.42178"/>
<path d="M556.743 1310.67L584.248 1337.93C587.826 1341.47 593.903 1338.9 593.847 1333.86L592.229 1187.73C592.173 1182.74 586.139 1180.28 582.611 1183.81L450.097 1316.33C441.981 1324.44 437.516 1335.51 437.727 1346.98L438.818 1406.26C438.909 1411.21 444.896 1413.64 448.417 1410.16L548.812 1310.67C551.008 1308.5 554.547 1308.5 556.743 1310.67Z" stroke="white" stroke-width="1.42178"/>
<path d="M400.257 1226.75L372.6 1199.35C369.043 1195.82 363 1198.34 363 1203.35L363 1349.48C363 1354.5 369.069 1357.02 372.618 1353.47L506.129 1219.96C514.135 1211.95 518.593 1201.07 518.504 1189.74L518.044 1131.37C518.005 1126.38 511.986 1123.9 508.445 1127.41L408.188 1226.75C405.992 1228.93 402.453 1228.93 400.257 1226.75Z" stroke="white" stroke-width="1.42178"/>
<path d="M876.743 862.673L904.248 889.928C907.826 893.474 913.903 890.901 913.848 885.864L912.229 739.732C912.174 734.743 906.139 732.283 902.611 735.811L770.097 868.325C761.981 876.441 757.516 887.508 757.727 898.982L758.818 958.257C758.909 963.213 764.896 965.645 768.417 962.155L868.812 862.673C871.008 860.497 874.547 860.497 876.743 862.673Z" stroke="white" stroke-width="1.42178"/>
<path d="M720.257 778.753L692.6 751.348C689.043 747.823 683 750.343 683 755.35L683 901.483C683 906.503 689.069 909.016 692.618 905.467L826.129 771.956C834.135 763.95 838.593 753.066 838.504 741.744L838.044 683.366C838.005 678.38 831.986 675.899 828.445 679.408L728.188 778.753C725.992 780.929 722.453 780.929 720.257 778.753Z" stroke="white" stroke-width="1.42178"/>
<path d="M346.743 862.673L374.248 889.928C377.826 893.474 383.903 890.901 383.848 885.864L382.229 739.732C382.174 734.743 376.139 732.283 372.611 735.811L240.097 868.325C231.981 876.44 227.516 887.508 227.727 898.982L228.818 958.257C228.909 963.213 234.896 965.645 238.417 962.155L338.812 862.673C341.008 860.497 344.547 860.497 346.743 862.673Z" stroke="white" stroke-width="1.42178"/>
<path d="M190.257 778.753L162.6 751.348C159.043 747.823 153 750.343 153 755.35L153 901.483C153 906.502 159.069 909.016 162.618 905.467L296.129 771.956C304.135 763.95 308.593 753.066 308.504 741.744L308.044 683.366C308.005 678.38 301.986 675.899 298.445 679.408L198.188 778.753C195.992 780.929 192.453 780.929 190.257 778.753Z" stroke="white" stroke-width="1.42178"/>
<path d="M635.743 880.673L663.248 907.928C666.826 911.474 672.903 908.901 672.848 903.864L671.229 757.732C671.174 752.743 665.139 750.283 661.611 753.811L529.097 886.325C520.981 894.441 516.516 905.508 516.727 916.982L517.818 976.257C517.909 981.213 523.896 983.645 527.417 980.155L627.812 880.673C630.008 878.497 633.547 878.497 635.743 880.673Z" stroke="white" stroke-width="1.42178"/>
<path d="M479.257 796.753L451.6 769.348C448.043 765.823 442 768.343 442 773.35L442 919.483C442 924.503 448.069 927.016 451.618 923.467L585.129 789.956C593.135 781.95 597.593 771.066 597.504 759.744L597.044 701.366C597.005 696.38 590.986 693.899 587.445 697.408L487.188 796.753C484.992 798.929 481.453 798.929 479.257 796.753Z" stroke="white" stroke-width="1.42178"/>
</g>
<g opacity="0.1">
<path d="M1219.74 409.673L1247.25 436.928C1250.83 440.474 1256.9 437.901 1256.85 432.864L1255.23 286.732C1255.17 281.743 1249.14 279.283 1245.61 282.811L1113.1 415.325C1104.98 423.441 1100.52 434.508 1100.73 445.982L1101.82 505.257C1101.91 510.213 1107.9 512.645 1111.42 509.155L1211.81 409.673C1214.01 407.497 1217.55 407.497 1219.74 409.673Z" stroke="white" stroke-width="1.42178"/>
<path d="M1063.26 325.753L1035.6 298.348C1032.04 294.823 1026 297.343 1026 302.35L1026 448.483C1026 453.503 1032.07 456.016 1035.62 452.467L1169.13 318.956C1177.13 310.95 1181.59 300.066 1181.5 288.744L1181.04 230.366C1181 225.38 1174.99 222.899 1171.44 226.408L1071.19 325.753C1068.99 327.929 1065.45 327.929 1063.26 325.753Z" stroke="white" stroke-width="1.42178"/>
<path d="M689.743 409.673L717.248 436.928C720.826 440.474 726.903 437.901 726.848 432.864L725.229 286.732C725.174 281.743 719.139 279.283 715.611 282.811L583.097 415.325C574.981 423.44 570.516 434.508 570.727 445.982L571.818 505.257C571.909 510.213 577.896 512.645 581.417 509.155L681.812 409.673C684.008 407.497 687.547 407.497 689.743 409.673Z" stroke="white" stroke-width="1.42178"/>
<path d="M533.257 325.753L505.6 298.348C502.043 294.823 496 297.343 496 302.35L496 448.483C496 453.502 502.069 456.016 505.618 452.467L639.129 318.956C647.135 310.95 651.593 300.066 651.504 288.744L651.044 230.366C651.005 225.38 644.986 222.899 641.445 226.408L541.188 325.753C538.992 327.929 535.453 327.929 533.257 325.753Z" stroke="white" stroke-width="1.42178"/>
<path d="M1066.74 640.673L1094.25 667.928C1097.83 671.474 1103.9 668.901 1103.85 663.864L1102.23 517.732C1102.17 512.743 1096.14 510.283 1092.61 513.811L960.097 646.325C951.981 654.441 947.516 665.508 947.727 676.982L948.818 736.257C948.909 741.213 954.896 743.645 958.417 740.155L1058.81 640.673C1061.01 638.497 1064.55 638.497 1066.74 640.673Z" stroke="white" stroke-width="1.42178"/>
<path d="M910.257 556.753L882.6 529.348C879.043 525.823 873 528.343 873 533.35L873 679.483C873 684.503 879.069 687.016 882.618 683.467L1016.13 549.956C1024.13 541.95 1028.59 531.066 1028.5 519.744L1028.04 461.366C1028 456.38 1021.99 453.899 1018.44 457.408L918.188 556.753C915.992 558.929 912.453 558.929 910.257 556.753Z" stroke="white" stroke-width="1.42178"/>
<path d="M536.743 640.673L564.248 667.928C567.826 671.474 573.903 668.901 573.848 663.864L572.229 517.732C572.174 512.743 566.139 510.283 562.611 513.811L430.097 646.325C421.981 654.44 417.516 665.508 417.727 676.982L418.818 736.257C418.909 741.213 424.896 743.645 428.417 740.155L528.812 640.673C531.008 638.497 534.547 638.497 536.743 640.673Z" stroke="white" stroke-width="1.42178"/>
<path d="M380.257 556.753L352.6 529.348C349.043 525.823 343 528.343 343 533.35L343 679.483C343 684.502 349.069 687.016 352.618 683.467L486.129 549.956C494.135 541.95 498.593 531.066 498.504 519.744L498.044 461.366C498.005 456.38 491.986 453.899 488.445 457.408L388.188 556.753C385.992 558.929 382.453 558.929 380.257 556.753Z" stroke="white" stroke-width="1.42178"/>
<path d="M950.743 437.673L978.248 464.928C981.826 468.474 987.903 465.901 987.847 460.864L986.229 314.732C986.173 309.743 980.139 307.283 976.611 310.811L844.097 443.325C835.981 451.44 831.516 462.508 831.727 473.982L832.818 533.257C832.909 538.213 838.896 540.645 842.417 537.155L942.812 437.673C945.008 435.497 948.547 435.497 950.743 437.673Z" stroke="white" stroke-width="1.42178"/>
<path d="M794.257 353.753L766.6 326.348C763.043 322.823 757 325.343 757 330.35L757 476.483C757 481.503 763.069 484.016 766.618 480.467L900.129 346.956C908.135 338.95 912.593 328.066 912.504 316.744L912.044 258.366C912.005 253.38 905.986 250.899 902.445 254.408L802.188 353.753C799.992 355.929 796.453 355.929 794.257 353.753Z" stroke="white" stroke-width="1.42178"/>
<path d="M420.743 437.673L448.248 464.928C451.826 468.474 457.903 465.901 457.848 460.864L456.229 314.732C456.174 309.743 450.139 307.283 446.611 310.811L314.097 443.325C305.981 451.44 301.516 462.508 301.727 473.982L302.818 533.257C302.909 538.213 308.896 540.645 312.417 537.155L412.812 437.673C415.008 435.497 418.547 435.497 420.743 437.673Z" stroke="white" stroke-width="1.42178"/>
<path d="M264.257 353.753L236.6 326.348C233.043 322.823 227 325.343 227 330.35L227 476.483C227 481.502 233.069 484.016 236.618 480.467L370.129 346.956C378.135 338.95 382.593 328.066 382.504 316.744L382.044 258.366C382.005 253.38 375.986 250.899 372.445 254.408L272.188 353.753C269.992 355.929 266.453 355.929 264.257 353.753Z" stroke="white" stroke-width="1.42178"/>
<path d="M1144.74 865.673L1172.25 892.928C1175.83 896.474 1181.9 893.901 1181.85 888.864L1180.23 742.732C1180.17 737.743 1174.14 735.283 1170.61 738.811L1038.1 871.325C1029.98 879.441 1025.52 890.508 1025.73 901.982L1026.82 961.257C1026.91 966.213 1032.9 968.645 1036.42 965.155L1136.81 865.673C1139.01 863.497 1142.55 863.497 1144.74 865.673Z" stroke="white" stroke-width="1.42178"/>
<path d="M988.257 781.753L960.6 754.348C957.043 750.823 951 753.343 951 758.35L951 904.483C951 909.503 957.069 912.016 960.618 908.467L1094.13 774.956C1102.13 766.95 1106.59 756.066 1106.5 744.744L1106.04 686.366C1106 681.38 1099.99 678.899 1096.44 682.408L996.188 781.753C993.992 783.929 990.453 783.929 988.257 781.753Z" stroke="white" stroke-width="1.42178"/>
<path d="M1222.74 1088.67L1250.25 1115.93C1253.83 1119.47 1259.9 1116.9 1259.85 1111.86L1258.23 965.732C1258.17 960.743 1252.14 958.283 1248.61 961.811L1116.1 1094.33C1107.98 1102.44 1103.52 1113.51 1103.73 1124.98L1104.82 1184.26C1104.91 1189.21 1110.9 1191.64 1114.42 1188.16L1214.81 1088.67C1217.01 1086.5 1220.55 1086.5 1222.74 1088.67Z" stroke="white" stroke-width="1.42178"/>
<path d="M1066.26 1004.75L1038.6 977.348C1035.04 973.823 1029 976.343 1029 981.35L1029 1127.48C1029 1132.5 1035.07 1135.02 1038.62 1131.47L1172.13 997.956C1180.13 989.95 1184.59 979.066 1184.5 967.744L1184.04 909.366C1184 904.38 1177.99 901.899 1174.44 905.408L1074.19 1004.75C1071.99 1006.93 1068.45 1006.93 1066.26 1004.75Z" stroke="white" stroke-width="1.42178"/>
<path d="M1312.74 640.674L1340.25 667.928C1343.83 671.474 1349.9 668.901 1349.85 663.864L1348.23 517.732C1348.17 512.743 1342.14 510.283 1338.61 513.811L1206.1 646.325C1197.98 654.441 1193.52 665.508 1193.73 676.982L1194.82 736.257C1194.91 741.213 1200.9 743.645 1204.42 740.155L1304.81 640.674C1307.01 638.497 1310.55 638.497 1312.74 640.674Z" stroke="white" stroke-width="1.42178"/>
<path d="M1156.26 556.753L1128.6 529.348C1125.04 525.823 1119 528.343 1119 533.35L1119 679.483C1119 684.503 1125.07 687.016 1128.62 683.467L1262.13 549.956C1270.13 541.95 1274.59 531.066 1274.5 519.744L1274.04 461.366C1274 456.38 1267.99 453.899 1264.44 457.408L1164.19 556.753C1161.99 558.929 1158.45 558.929 1156.26 556.753Z" stroke="white" stroke-width="1.42178"/>
<path d="M782.743 640.673L810.248 667.928C813.826 671.474 819.903 668.901 819.848 663.864L818.229 517.732C818.174 512.743 812.139 510.283 808.611 513.811L676.097 646.325C667.981 654.44 663.516 665.508 663.727 676.982L664.818 736.257C664.909 741.213 670.896 743.645 674.417 740.155L774.812 640.673C777.008 638.497 780.547 638.497 782.743 640.673Z" stroke="white" stroke-width="1.42178"/>
<path d="M626.257 556.753L598.6 529.348C595.043 525.823 589 528.343 589 533.35L589 679.483C589 684.503 595.069 687.016 598.618 683.467L732.129 549.956C740.135 541.95 744.593 531.066 744.504 519.744L744.044 461.366C744.005 456.38 737.986 453.899 734.445 457.408L634.188 556.753C631.992 558.929 628.453 558.929 626.257 556.753Z" stroke="white" stroke-width="1.42178"/>
<path d="M1102.74 192.673L1130.25 219.928C1133.83 223.474 1139.9 220.901 1139.85 215.864L1138.23 69.7323C1138.17 64.7432 1132.14 62.2827 1128.61 65.8108L996.097 198.325C987.981 206.441 983.516 217.508 983.727 228.982L984.818 288.257C984.909 293.213 990.896 295.645 994.417 292.155L1094.81 192.673C1097.01 190.497 1100.55 190.497 1102.74 192.673Z" stroke="white" stroke-width="1.42178"/>
<path d="M946.257 108.753L918.6 81.3477C915.043 77.8234 909 80.3427 909 85.3498L909 231.483C909 236.503 915.069 239.016 918.618 235.467L1052.13 101.956C1060.13 93.9503 1064.59 83.0662 1064.5 71.7442L1064.04 13.3657C1064.01 8.38009 1057.99 5.89863 1054.44 9.40797L954.188 108.753C951.992 110.929 948.453 110.929 946.257 108.753Z" stroke="white" stroke-width="1.42178"/>
<path d="M572.743 192.673L600.248 219.928C603.826 223.474 609.903 220.901 609.848 215.864L608.229 69.7323C608.174 64.7432 602.139 62.2827 598.611 65.8108L466.097 198.325C457.981 206.44 453.516 217.508 453.727 228.982L454.818 288.257C454.909 293.213 460.896 295.645 464.417 292.155L564.812 192.673C567.008 190.497 570.547 190.497 572.743 192.673Z" stroke="white" stroke-width="1.42178"/>
<path d="M416.257 108.753L388.6 81.3477C385.043 77.8233 379 80.3427 379 85.3498L379 231.483C379 236.502 385.069 239.016 388.618 235.467L522.129 101.956C530.135 93.9502 534.593 83.0661 534.504 71.7441L534.044 13.3656C534.005 8.38003 527.986 5.89857 524.445 9.40791L424.188 108.753C421.992 110.929 418.453 110.929 416.257 108.753Z" stroke="white" stroke-width="1.42178"/>
<path d="M861.743 210.673L889.248 237.928C892.826 241.474 898.903 238.901 898.848 233.864L897.229 87.7323C897.174 82.7432 891.139 80.2827 887.611 83.8108L755.097 216.325C746.981 224.44 742.516 235.508 742.727 246.982L743.818 306.257C743.909 311.213 749.896 313.645 753.417 310.155L853.812 210.673C856.008 208.497 859.547 208.497 861.743 210.673Z" stroke="white" stroke-width="1.42178"/>
<path d="M705.257 126.753L677.6 99.3477C674.043 95.8233 668 98.3427 668 103.35L668 249.483C668 254.502 674.069 257.016 677.618 253.467L811.129 119.956C819.135 111.95 823.593 101.066 823.504 89.7441L823.044 31.3656C823.005 26.38 816.986 23.8986 813.445 27.4079L713.188 126.753C710.992 128.929 707.453 128.929 705.257 126.753Z" stroke="white" stroke-width="1.42178"/>
<path d="M1386.74 882.674L1414.25 909.928C1417.83 913.474 1423.9 910.901 1423.85 905.864L1422.23 759.732C1422.17 754.743 1416.14 752.283 1412.61 755.811L1280.1 888.325C1271.98 896.441 1267.52 907.508 1267.73 918.982L1268.82 978.257C1268.91 983.213 1274.9 985.645 1278.42 982.155L1378.81 882.674C1381.01 880.497 1384.55 880.497 1386.74 882.674Z" stroke="white" stroke-width="1.42178"/>
<path d="M1230.26 798.753L1202.6 771.348C1199.04 767.823 1193 770.343 1193 775.35L1193 921.483C1193 926.503 1199.07 929.016 1202.62 925.467L1336.13 791.956C1344.13 783.95 1348.59 773.066 1348.5 761.744L1348.04 703.366C1348 698.38 1341.99 695.899 1338.44 699.408L1238.19 798.753C1235.99 800.929 1232.45 800.929 1230.26 798.753Z" stroke="white" stroke-width="1.42178"/>
</g>
</svg>
