<svg width="232" height="73" viewBox="0 0 232 73" fill="none" xmlns="http://www.w3.org/2000/svg">
<g clip-path="url(#clip0_3_2)">
<path d="M87.2016 55.5419C78.7542 55.3303 71.5995 50.6867 71.0634 42.8633C71.0323 42.4094 71.4018 42.0375 71.8558 42.0375H79.6077C80.0307 42.0375 80.3787 42.3624 80.4538 42.7796C81.096 46.3475 83.9336 47.9594 87.3472 48.0962C90.3335 48.1692 93.0285 46.7093 93.1014 44.1544C93.1742 41.4535 91.3533 40.2126 86.9102 39.4826C77.5142 38.3147 71.2502 36.1247 71.1045 28.5331C70.9589 21.5984 77.2957 17.0726 86.1818 17.0726C95.0619 17.0726 101.964 21.3098 102.666 29.5859C102.705 30.047 102.333 30.431 101.872 30.431H94.1591C93.7282 30.431 93.3772 30.0933 93.3005 29.6683C92.7574 26.6582 90.1803 24.6587 86.546 24.5912C83.1955 24.5182 81.0104 26.3432 81.0104 28.8981C81.0832 31.3799 82.9042 32.8399 87.7114 33.7159C98.1271 35.5408 102.934 37.1467 102.862 44.8114C102.862 52.0381 96.1605 55.7609 87.2016 55.5419Z" fill="white"/>
<path d="M212.664 52.136C202.321 52.136 193.532 45.0218 193.464 34.4522C193.397 23.4084 201.915 16.4297 212.664 16.4297C223.617 16.4297 232.067 23.4084 232 34.4522C231.932 44.8863 223.887 52.136 212.664 52.136ZM202.929 34.3845C202.929 40.008 207.188 44.3443 212.597 44.3443C218.14 44.3443 222.467 40.2113 222.467 34.3845C222.467 28.5576 218.276 24.2214 212.664 24.2214C207.188 24.2214 202.929 28.3544 202.929 34.3845Z" fill="white"/>
<path d="M194.143 49.9246C194.212 50.3052 194.007 50.6847 193.645 50.8182C184.663 54.1285 173.102 50.2302 173.102 38.1109V25.7176C173.102 25.2655 172.736 24.8989 172.285 24.8989H168.713C168.262 24.8989 167.896 24.5324 167.896 24.0802V17.5102C167.896 17.0616 168.261 16.7004 168.707 16.668C173.547 16.3171 173.151 13.2308 173.105 7.56174C173.102 7.1096 173.467 6.74091 173.919 6.74091H181.755C182.204 6.74091 182.569 7.10407 182.572 7.55403L182.628 15.8876C182.632 16.3376 182.996 16.7007 183.445 16.7007H191.011C191.463 16.7007 191.828 17.0673 191.828 17.5194V24.0802C191.828 24.5324 191.463 24.8989 191.011 24.8989H183.383C182.932 24.8989 182.566 25.2655 182.566 25.7176V36.8913C182.566 42.248 186.878 44.3036 191.839 42.7756C192.33 42.6242 192.861 42.9181 192.954 43.4246L194.143 49.9246Z" fill="white"/>
<path d="M159.533 51.4583C158.18 51.4583 157.082 50.3586 157.082 49.0022V19.5632C157.082 18.2067 158.18 17.1071 159.533 17.1071H164.096C165.45 17.1071 166.547 18.2067 166.547 19.5632V49.0022C166.547 50.3586 165.45 51.4583 164.096 51.4583H159.533Z" fill="white"/>
<path d="M147.888 51.458C146.534 51.458 145.437 50.3583 145.437 49.0019V15.457C145.437 14.6719 145.812 13.9341 146.445 13.4718L151.076 10.0911C152.696 8.90869 154.97 10.0681 154.97 12.0763V49.0019C154.97 50.3583 153.872 51.458 152.519 51.458H147.888Z" fill="white"/>
<path d="M105.566 62.9761C105.115 62.9761 104.749 62.6096 104.749 62.1574V23.2846C104.749 22.9878 104.91 22.7142 105.168 22.5696L112.999 18.1924C113.544 17.888 114.214 18.2825 114.214 18.9074V25.5761C115.837 20.2913 121.313 16.7003 126.856 16.7003C136.592 16.5648 143.69 24.4242 143.69 34.2485C143.69 45.5634 136.592 52.2033 127.397 52.1355C121.786 52.0678 115.972 49.0189 114.282 43.3953V62.1574C114.282 62.6096 113.916 62.9761 113.465 62.9761H105.566ZM114.62 34.2485C114.62 40.6174 119.082 44.2083 124.423 44.3439C129.831 44.4116 134.158 40.7529 134.158 34.2485C134.158 28.4217 129.696 24.492 124.423 24.5598C119.149 24.6275 114.62 28.5572 114.62 34.2485Z" fill="white"/>
<path d="M159.37 12.279L162.854 14.8739C163.393 15.2754 164.158 14.8898 164.158 14.2169V0.820263C164.158 0.124438 163.347 -0.254167 162.816 0.193665L146.478 13.9626C146.293 14.1181 146.186 14.3475 146.186 14.5892V21.0198C146.186 21.7199 147.007 22.097 147.536 21.6403L158.35 12.3155C158.64 12.0658 159.063 12.0506 159.37 12.279Z" fill="white"/>
<path d="M9.31637 26.4267L2.41036 19.5685C1.51197 18.6763 -0.0139131 19.3238 9.57874e-05 20.5912L0.406526 57.3627C0.420402 58.6181 1.93553 59.2372 2.82137 58.3495L36.0933 25.0045C38.1309 22.9625 39.2521 20.1776 39.1991 17.2902L38.9251 2.37482C38.9022 1.1276 37.3992 0.515826 36.515 1.39385L11.3078 26.4267C10.7564 26.9743 9.86775 26.9743 9.31637 26.4267Z" fill="white"/>
<path d="M48.6073 47.5441L55.5514 54.4402C56.4444 55.327 57.9618 54.693 57.9618 53.4331V16.6612C57.9618 15.3982 56.438 14.7656 55.5468 15.6587L22.0247 49.2543C20.0146 51.2689 18.8952 54.0078 18.9175 56.8567L19.033 71.5466C19.0428 72.8012 20.554 73.4256 21.4433 72.5425L46.6159 47.5441C47.1673 46.9965 48.0559 46.9965 48.6073 47.5441Z" fill="white"/>
</g>
<defs>
<clipPath id="clip0_3_2">
<rect width="232" height="73" fill="white"/>
</clipPath>
</defs>
</svg>
