<svg width="14" height="14" viewBox="0 0 14 14" fill="none" xmlns="http://www.w3.org/2000/svg">
<path d="M5.54175 8.02079C5.54175 8.58663 5.97926 9.04163 6.51592 9.04163H7.61257C8.07924 9.04163 8.45842 8.64496 8.45842 8.14913C8.45842 7.61829 8.22509 7.4258 7.88092 7.3033L6.12508 6.69079C5.78092 6.56829 5.54759 6.38163 5.54759 5.84496C5.54759 5.35496 5.92674 4.95246 6.39341 4.95246H7.49008C8.02675 4.95246 8.46425 5.40746 8.46425 5.9733M7.00008 4.37496V9.62496M12.8334 6.99996C12.8334 10.22 10.2201 12.8333 7.00008 12.8333C3.78008 12.8333 1.16675 10.22 1.16675 6.99996C1.16675 3.77996 3.78008 1.16663 7.00008 1.16663M12.8334 3.49996V1.16663M12.8334 1.16663H10.5001M12.8334 1.16663L9.91675 4.08329" stroke="white" stroke-width="0.875" stroke-linecap="round" stroke-linejoin="round"/>
</svg>
