<svg width="20" height="20" viewBox="0 0 20 20" fill="none" xmlns="http://www.w3.org/2000/svg">
<path d="M10.0924 9.02205C10.0094 9.01375 9.90985 9.01375 9.81855 9.02205C7.84321 8.95565 6.27456 7.3372 6.27456 5.34525C6.27456 3.31181 7.91791 1.66016 9.95965 1.66016C11.9931 1.66016 13.6447 3.31181 13.6447 5.34525C13.6364 7.3372 12.0678 8.95565 10.0924 9.02205Z" stroke="white" stroke-width="1.24496" stroke-linecap="round" stroke-linejoin="round"/>
<path d="M5.94256 12.0847C3.93402 13.4292 3.93402 15.6204 5.94256 16.9566C8.225 18.4838 11.9682 18.4838 14.2506 16.9566C16.2592 15.6121 16.2592 13.4209 14.2506 12.0847C11.9765 10.5658 8.2333 10.5658 5.94256 12.0847Z" stroke="white" stroke-width="1.24496" stroke-linecap="round" stroke-linejoin="round"/>
</svg>
