<svg width="24" height="24" viewBox="0 0 24 24" fill="none" xmlns="http://www.w3.org/2000/svg">
<path d="M16.9699 14.44C18.3399 14.67 19.8499 14.43 20.9099 13.72C22.3199 12.78 22.3199 11.24 20.9099 10.3C19.8399 9.59001 18.3099 9.35 16.9399 9.59M6.99994 14.44C5.62994 14.67 4.11994 14.43 3.05994 13.72C1.64994 12.78 1.64994 11.24 3.05994 10.3C4.12994 9.59001 5.65994 9.35 7.02994 9.59M17.9999 7.16C17.9399 7.15 17.8699 7.15 17.8099 7.16C16.4299 7.11 15.3299 5.98 15.3299 4.58C15.3299 3.15 16.4799 2 17.9099 2C19.3399 2 20.4899 3.16 20.4899 4.58C20.4799 5.98 19.3799 7.11 17.9999 7.16ZM5.96994 7.16C6.02994 7.15 6.09994 7.15 6.15994 7.16C7.53994 7.11 8.63994 5.98 8.63994 4.58C8.63994 3.15 7.48994 2 6.05994 2C4.62994 2 3.47994 3.16 3.47994 4.58C3.48994 5.98 4.58994 7.11 5.96994 7.16ZM11.9999 14.63C11.9399 14.62 11.8699 14.62 11.8099 14.63C10.4299 14.58 9.32994 13.45 9.32994 12.05C9.32994 10.62 10.4799 9.47 11.9099 9.47C13.3399 9.47 14.4899 10.63 14.4899 12.05C14.4799 13.45 13.3799 14.59 11.9999 14.63ZM9.08994 17.78C7.67994 18.72 7.67994 20.26 9.08994 21.2C10.6899 22.27 13.3099 22.27 14.9099 21.2C16.3199 20.26 16.3199 18.72 14.9099 17.78C13.3199 16.72 10.6899 16.72 9.08994 17.78Z" stroke="white" stroke-width="1.5" stroke-linecap="round" stroke-linejoin="round"/>
</svg>
