<svg width="1146" height="1173" viewBox="0 0 1146 1173" fill="none" xmlns="http://www.w3.org/2000/svg">
<g opacity="0.1">
<path d="M940.743 409.674L968.248 436.928C971.826 440.474 977.903 437.901 977.847 432.864L976.229 286.732C976.173 281.743 970.139 279.283 966.611 282.811L834.097 415.325C825.981 423.441 821.516 434.508 821.727 445.982L822.818 505.257C822.909 510.213 828.896 512.645 832.417 509.155L932.812 409.674C935.008 407.497 938.547 407.497 940.743 409.674Z" stroke="white" stroke-width="1.42178"/>
<path d="M784.257 325.753L756.6 298.348C753.043 294.823 747 297.343 747 302.35L747 448.483C747 453.502 753.069 456.016 756.618 452.467L890.129 318.956C898.135 310.95 902.593 300.066 902.504 288.744L902.044 230.366C902.005 225.38 895.986 222.899 892.445 226.408L792.188 325.753C789.992 327.929 786.453 327.929 784.257 325.753Z" stroke="white" stroke-width="1.42178"/>
<path d="M410.743 409.674L438.248 436.928C441.826 440.474 447.903 437.901 447.847 432.864L446.229 286.732C446.173 281.743 440.139 279.283 436.611 282.811L304.097 415.325C295.981 423.441 291.516 434.508 291.727 445.982L292.818 505.257C292.909 510.213 298.896 512.645 302.417 509.155L402.812 409.674C405.008 407.497 408.547 407.497 410.743 409.674Z" stroke="white" stroke-width="1.42178"/>
<path d="M254.257 325.753L226.6 298.348C223.043 294.823 217 297.343 217 302.35L217 448.483C217 453.502 223.069 456.016 226.618 452.467L360.129 318.956C368.135 310.95 372.593 300.066 372.504 288.744L372.044 230.366C372.005 225.38 365.986 222.899 362.445 226.408L262.188 325.753C259.992 327.929 256.453 327.929 254.257 325.753Z" stroke="white" stroke-width="1.42178"/>
<path d="M787.743 640.674L815.248 667.928C818.826 671.474 824.903 668.901 824.847 663.864L823.229 517.732C823.173 512.743 817.139 510.283 813.611 513.811L681.097 646.325C672.981 654.441 668.516 665.508 668.727 676.982L669.818 736.257C669.909 741.213 675.896 743.645 679.417 740.155L779.812 640.674C782.008 638.497 785.547 638.497 787.743 640.674Z" stroke="white" stroke-width="1.42178"/>
<path d="M631.257 556.753L603.6 529.348C600.043 525.823 594 528.343 594 533.35L594 679.483C594 684.502 600.069 687.016 603.618 683.467L737.129 549.956C745.135 541.95 749.593 531.066 749.504 519.744L749.044 461.366C749.005 456.38 742.986 453.899 739.445 457.408L639.188 556.753C636.992 558.929 633.453 558.929 631.257 556.753Z" stroke="white" stroke-width="1.42178"/>
<path d="M257.743 640.674L285.248 667.928C288.826 671.474 294.903 668.901 294.847 663.864L293.229 517.732C293.173 512.743 287.139 510.283 283.611 513.811L151.097 646.325C142.981 654.441 138.516 665.508 138.727 676.982L139.818 736.257C139.909 741.213 145.896 743.645 149.417 740.155L249.812 640.674C252.008 638.497 255.547 638.497 257.743 640.674Z" stroke="white" stroke-width="1.42178"/>
<path d="M101.257 556.753L73.5998 529.348C70.0432 525.823 64 528.343 64 533.35L64 679.483C64 684.502 70.0687 687.016 73.6181 683.467L207.129 549.956C215.135 541.95 219.593 531.066 219.504 519.744L219.044 461.366C219.005 456.38 212.986 453.899 209.445 457.408L109.188 556.753C106.992 558.929 103.453 558.929 101.257 556.753Z" stroke="white" stroke-width="1.42178"/>
<path d="M671.743 437.674L699.248 464.928C702.826 468.474 708.903 465.901 708.847 460.864L707.229 314.732C707.173 309.743 701.139 307.283 697.611 310.811L565.097 443.325C556.981 451.441 552.516 462.508 552.727 473.982L553.818 533.257C553.909 538.213 559.896 540.645 563.417 537.155L663.812 437.674C666.008 435.497 669.547 435.497 671.743 437.674Z" stroke="white" stroke-width="1.42178"/>
<path d="M515.257 353.753L487.6 326.348C484.043 322.823 478 325.343 478 330.35L478 476.483C478 481.502 484.069 484.016 487.618 480.467L621.129 346.956C629.135 338.95 633.593 328.066 633.504 316.744L633.044 258.366C633.005 253.38 626.986 250.899 623.445 254.408L523.188 353.753C520.992 355.929 517.453 355.929 515.257 353.753Z" stroke="white" stroke-width="1.42178"/>
<path d="M141.743 437.674L169.248 464.928C172.826 468.474 178.903 465.901 178.847 460.864L177.229 314.732C177.173 309.743 171.139 307.283 167.611 310.811L35.0966 443.325C26.9813 451.441 22.516 462.508 22.7272 473.982L23.8181 533.257C23.9093 538.213 29.8957 540.645 33.417 537.155L133.812 437.674C136.008 435.497 139.547 435.497 141.743 437.674Z" stroke="white" stroke-width="1.42178"/>
<path d="M-14.7434 353.753L-42.4002 326.348C-45.9568 322.823 -52 325.343 -52 330.35L-52 476.483C-52 481.502 -45.9313 484.016 -42.3819 480.467L91.1287 346.956C99.1348 338.95 103.593 328.066 103.504 316.744L103.044 258.366C103.005 253.38 96.9861 250.899 93.4446 254.408L-6.812 353.753C-9.00803 355.929 -12.5474 355.929 -14.7434 353.753Z" stroke="white" stroke-width="1.42178"/>
<path d="M865.743 865.674L893.248 892.928C896.826 896.474 902.903 893.901 902.847 888.864L901.229 742.732C901.173 737.743 895.139 735.283 891.611 738.811L759.097 871.325C750.981 879.441 746.516 890.508 746.727 901.982L747.818 961.257C747.909 966.213 753.896 968.645 757.417 965.155L857.812 865.674C860.008 863.497 863.547 863.497 865.743 865.674Z" stroke="white" stroke-width="1.42178"/>
<path d="M709.257 781.753L681.6 754.348C678.043 750.823 672 753.343 672 758.35L672 904.483C672 909.502 678.069 912.016 681.618 908.467L815.129 774.956C823.135 766.95 827.593 756.066 827.504 744.744L827.044 686.366C827.005 681.38 820.986 678.899 817.445 682.408L717.188 781.753C714.992 783.929 711.453 783.929 709.257 781.753Z" stroke="white" stroke-width="1.42178"/>
<path d="M943.743 1088.67L971.248 1115.93C974.826 1119.47 980.903 1116.9 980.847 1111.86L979.229 965.732C979.173 960.743 973.139 958.283 969.611 961.811L837.097 1094.33C828.981 1102.44 824.516 1113.51 824.727 1124.98L825.818 1184.26C825.909 1189.21 831.896 1191.64 835.417 1188.16L935.812 1088.67C938.008 1086.5 941.547 1086.5 943.743 1088.67Z" stroke="white" stroke-width="1.42178"/>
<path d="M787.257 1004.75L759.6 977.348C756.043 973.824 750 976.343 750 981.35L750 1127.48C750 1132.5 756.069 1135.02 759.618 1131.47L893.129 997.957C901.135 989.95 905.593 979.066 905.504 967.744L905.044 909.366C905.005 904.38 898.986 901.899 895.445 905.408L795.188 1004.75C792.992 1006.93 789.453 1006.93 787.257 1004.75Z" stroke="white" stroke-width="1.42178"/>
<path d="M1033.74 640.674L1061.25 667.928C1064.83 671.474 1070.9 668.901 1070.85 663.864L1069.23 517.732C1069.17 512.743 1063.14 510.283 1059.61 513.811L927.097 646.325C918.981 654.441 914.516 665.508 914.727 676.982L915.818 736.257C915.909 741.213 921.896 743.645 925.417 740.155L1025.81 640.674C1028.01 638.497 1031.55 638.497 1033.74 640.674Z" stroke="white" stroke-width="1.42178"/>
<path d="M877.257 556.753L849.6 529.348C846.043 525.823 840 528.343 840 533.35L840 679.483C840 684.502 846.069 687.016 849.618 683.467L983.129 549.956C991.135 541.95 995.593 531.066 995.504 519.744L995.044 461.366C995.005 456.38 988.986 453.899 985.445 457.408L885.188 556.753C882.992 558.929 879.453 558.929 877.257 556.753Z" stroke="white" stroke-width="1.42178"/>
<path d="M503.743 640.674L531.248 667.928C534.826 671.474 540.903 668.901 540.847 663.864L539.229 517.732C539.173 512.743 533.139 510.283 529.611 513.811L397.097 646.325C388.981 654.441 384.516 665.508 384.727 676.982L385.818 736.257C385.909 741.213 391.896 743.645 395.417 740.155L495.812 640.674C498.008 638.497 501.547 638.497 503.743 640.674Z" stroke="white" stroke-width="1.42178"/>
<path d="M347.257 556.753L319.6 529.348C316.043 525.823 310 528.343 310 533.35L310 679.483C310 684.502 316.069 687.016 319.618 683.467L453.129 549.956C461.135 541.95 465.593 531.066 465.504 519.744L465.044 461.366C465.005 456.38 458.986 453.899 455.445 457.408L355.188 556.753C352.992 558.929 349.453 558.929 347.257 556.753Z" stroke="white" stroke-width="1.42178"/>
<path d="M823.743 192.674L851.248 219.928C854.826 223.474 860.903 220.901 860.847 215.864L859.229 69.7324C859.173 64.7432 853.139 62.2828 849.611 65.8109L717.097 198.325C708.981 206.441 704.516 217.508 704.727 228.982L705.818 288.257C705.909 293.213 711.896 295.645 715.417 292.155L815.812 192.674C818.008 190.497 821.547 190.497 823.743 192.674Z" stroke="white" stroke-width="1.42178"/>
<path d="M667.257 108.753L639.6 81.3477C636.043 77.8233 630 80.3427 630 85.3498L630 231.483C630 236.502 636.069 239.016 639.618 235.467L773.129 101.956C781.135 93.9502 785.593 83.0661 785.504 71.7441L785.044 13.3656C785.005 8.38003 778.986 5.89857 775.445 9.40791L675.188 108.753C672.992 110.929 669.453 110.929 667.257 108.753Z" stroke="white" stroke-width="1.42178"/>
<path d="M293.743 192.674L321.248 219.928C324.826 223.474 330.903 220.901 330.847 215.864L329.229 69.7324C329.173 64.7432 323.139 62.2828 319.611 65.8109L187.097 198.325C178.981 206.441 174.516 217.508 174.727 228.982L175.818 288.257C175.909 293.213 181.896 295.645 185.417 292.155L285.812 192.674C288.008 190.497 291.547 190.497 293.743 192.674Z" stroke="white" stroke-width="1.42178"/>
<path d="M137.257 108.753L109.6 81.3477C106.043 77.8233 100 80.3427 100 85.3498L100 231.483C100 236.502 106.069 239.016 109.618 235.467L243.129 101.956C251.135 93.9502 255.593 83.0661 255.504 71.7441L255.044 13.3656C255.005 8.38003 248.986 5.89857 245.445 9.40791L145.188 108.753C142.992 110.929 139.453 110.929 137.257 108.753Z" stroke="white" stroke-width="1.42178"/>
<path d="M582.743 210.674L610.248 237.928C613.826 241.474 619.903 238.901 619.847 233.864L618.229 87.7324C618.173 82.7432 612.139 80.2828 608.611 83.8109L476.097 216.325C467.981 224.441 463.516 235.508 463.727 246.982L464.818 306.257C464.909 311.213 470.896 313.645 474.417 310.155L574.812 210.674C577.008 208.497 580.547 208.497 582.743 210.674Z" stroke="white" stroke-width="1.42178"/>
<path d="M426.257 126.753L398.6 99.3477C395.043 95.8233 389 98.3427 389 103.35L389 249.483C389 254.502 395.069 257.016 398.618 253.467L532.129 119.956C540.135 111.95 544.593 101.066 544.504 89.7441L544.044 31.3656C544.005 26.38 537.986 23.8986 534.445 27.4079L434.188 126.753C431.992 128.929 428.453 128.929 426.257 126.753Z" stroke="white" stroke-width="1.42178"/>
<path d="M1107.74 882.674L1135.25 909.928C1138.83 913.474 1144.9 910.901 1144.85 905.864L1143.23 759.732C1143.17 754.743 1137.14 752.283 1133.61 755.811L1001.1 888.325C992.981 896.441 988.516 907.508 988.727 918.982L989.818 978.257C989.909 983.213 995.896 985.645 999.417 982.155L1099.81 882.674C1102.01 880.497 1105.55 880.497 1107.74 882.674Z" stroke="white" stroke-width="1.42178"/>
<path d="M951.257 798.753L923.6 771.348C920.043 767.823 914 770.343 914 775.35L914 921.483C914 926.502 920.069 929.016 923.618 925.467L1057.13 791.956C1065.13 783.95 1069.59 773.066 1069.5 761.744L1069.04 703.366C1069.01 698.38 1062.99 695.899 1059.44 699.408L959.188 798.753C956.992 800.929 953.453 800.929 951.257 798.753Z" stroke="white" stroke-width="1.42178"/>
</g>
</svg>
