<svg width="1604" height="1462" viewBox="0 0 1604 1462" fill="none" xmlns="http://www.w3.org/2000/svg">
<g opacity="0.1">
<path d="M1398.74 409.674L1426.25 436.929C1429.83 440.474 1435.9 437.901 1435.85 432.864L1434.23 286.733C1434.17 281.743 1428.14 279.283 1424.61 282.811L1292.1 415.325C1283.98 423.441 1279.52 434.508 1279.73 445.983L1280.82 505.257C1280.91 510.214 1286.9 512.645 1290.42 509.156L1390.81 409.674C1393.01 407.498 1396.55 407.498 1398.74 409.674Z" stroke="white" stroke-width="1.42178"/>
<path d="M1242.26 325.753L1214.6 298.348C1211.04 294.824 1205 297.343 1205 302.35L1205 448.483C1205 453.503 1211.07 456.017 1214.62 452.467L1348.13 318.957C1356.13 310.951 1360.59 300.066 1360.5 288.744L1360.04 230.366C1360.01 225.38 1353.99 222.899 1350.44 226.408L1250.19 325.753C1247.99 327.929 1244.45 327.929 1242.26 325.753Z" stroke="white" stroke-width="1.42178"/>
<path d="M868.743 409.674L896.248 436.929C899.826 440.474 905.903 437.901 905.848 432.864L904.229 286.733C904.174 281.743 898.139 279.283 894.611 282.811L762.097 415.325C753.981 423.441 749.516 434.508 749.727 445.983L750.818 505.257C750.91 510.214 756.896 512.645 760.417 509.155L860.812 409.674C863.008 407.498 866.547 407.498 868.743 409.674Z" stroke="white" stroke-width="1.42178"/>
<path d="M712.257 325.753L684.6 298.348C681.043 294.824 675 297.343 675 302.35L675 448.483C675 453.503 681.069 456.017 684.618 452.467L818.129 318.957C826.135 310.95 830.593 300.066 830.504 288.744L830.044 230.366C830.005 225.38 823.986 222.899 820.445 226.408L720.188 325.753C717.992 327.929 714.453 327.929 712.257 325.753Z" stroke="white" stroke-width="1.42178"/>
<path d="M1245.74 640.674L1273.25 667.929C1276.83 671.474 1282.9 668.901 1282.85 663.864L1281.23 517.733C1281.17 512.743 1275.14 510.283 1271.61 513.811L1139.1 646.325C1130.98 654.441 1126.52 665.508 1126.73 676.983L1127.82 736.257C1127.91 741.214 1133.9 743.645 1137.42 740.155L1237.81 640.674C1240.01 638.498 1243.55 638.498 1245.74 640.674Z" stroke="white" stroke-width="1.42178"/>
<path d="M1089.26 556.753L1061.6 529.348C1058.04 525.824 1052 528.343 1052 533.35L1052 679.483C1052 684.503 1058.07 687.017 1061.62 683.467L1195.13 549.957C1203.13 541.951 1207.59 531.066 1207.5 519.744L1207.04 461.366C1207.01 456.38 1200.99 453.899 1197.44 457.408L1097.19 556.753C1094.99 558.929 1091.45 558.929 1089.26 556.753Z" stroke="white" stroke-width="1.42178"/>
<path d="M715.743 640.674L743.248 667.929C746.826 671.474 752.903 668.901 752.848 663.864L751.229 517.733C751.174 512.743 745.139 510.283 741.611 513.811L609.097 646.325C600.981 654.441 596.516 665.508 596.727 676.983L597.818 736.257C597.91 741.214 603.896 743.645 607.417 740.155L707.812 640.674C710.008 638.498 713.547 638.498 715.743 640.674Z" stroke="white" stroke-width="1.42178"/>
<path d="M559.257 556.753L531.6 529.348C528.043 525.824 522 528.343 522 533.35L522 679.483C522 684.503 528.069 687.017 531.618 683.467L665.129 549.957C673.135 541.95 677.593 531.066 677.504 519.744L677.044 461.366C677.005 456.38 670.986 453.899 667.445 457.408L567.188 556.753C564.992 558.929 561.453 558.929 559.257 556.753Z" stroke="white" stroke-width="1.42178"/>
<path d="M1129.74 437.674L1157.25 464.929C1160.83 468.474 1166.9 465.901 1166.85 460.864L1165.23 314.733C1165.17 309.743 1159.14 307.283 1155.61 310.811L1023.1 443.325C1014.98 451.441 1010.52 462.508 1010.73 473.983L1011.82 533.257C1011.91 538.214 1017.9 540.645 1021.42 537.155L1121.81 437.674C1124.01 435.498 1127.55 435.498 1129.74 437.674Z" stroke="white" stroke-width="1.42178"/>
<path d="M973.257 353.753L945.6 326.348C942.043 322.824 936 325.343 936 330.35L936 476.483C936 481.503 942.069 484.017 945.618 480.467L1079.13 346.957C1087.13 338.951 1091.59 328.066 1091.5 316.744L1091.04 258.366C1091.01 253.38 1084.99 250.899 1081.44 254.408L981.188 353.753C978.992 355.929 975.453 355.929 973.257 353.753Z" stroke="white" stroke-width="1.42178"/>
<path d="M599.743 437.674L627.248 464.929C630.826 468.474 636.903 465.901 636.848 460.864L635.229 314.733C635.174 309.743 629.139 307.283 625.611 310.811L493.097 443.325C484.981 451.441 480.516 462.508 480.727 473.983L481.818 533.257C481.91 538.214 487.896 540.645 491.417 537.155L591.812 437.674C594.008 435.498 597.547 435.498 599.743 437.674Z" stroke="white" stroke-width="1.42178"/>
<path d="M443.257 353.753L415.6 326.348C412.043 322.824 406 325.343 406 330.35L406 476.483C406 481.503 412.069 484.016 415.618 480.467L549.129 346.957C557.135 338.95 561.593 328.066 561.504 316.744L561.044 258.366C561.005 253.38 554.986 250.899 551.445 254.408L451.188 353.753C448.992 355.929 445.453 355.929 443.257 353.753Z" stroke="white" stroke-width="1.42178"/>
<path d="M1323.74 865.674L1351.25 892.929C1354.83 896.474 1360.9 893.901 1360.85 888.864L1359.23 742.733C1359.17 737.743 1353.14 735.283 1349.61 738.811L1217.1 871.326C1208.98 879.441 1204.52 890.508 1204.73 901.983L1205.82 961.257C1205.91 966.214 1211.9 968.645 1215.42 965.156L1315.81 865.674C1318.01 863.498 1321.55 863.498 1323.74 865.674Z" stroke="white" stroke-width="1.42178"/>
<path d="M1167.26 781.753L1139.6 754.348C1136.04 750.824 1130 753.343 1130 758.35L1130 904.483C1130 909.503 1136.07 912.017 1139.62 908.467L1273.13 774.957C1281.13 766.951 1285.59 756.066 1285.5 744.744L1285.04 686.366C1285.01 681.38 1278.99 678.899 1275.44 682.408L1175.19 781.753C1172.99 783.929 1169.45 783.929 1167.26 781.753Z" stroke="white" stroke-width="1.42178"/>
<path d="M1401.74 1088.67L1429.25 1115.93C1432.83 1119.47 1438.9 1116.9 1438.85 1111.86L1437.23 965.733C1437.17 960.743 1431.14 958.283 1427.61 961.811L1295.1 1094.33C1286.98 1102.44 1282.52 1113.51 1282.73 1124.98L1283.82 1184.26C1283.91 1189.21 1289.9 1191.64 1293.42 1188.16L1393.81 1088.67C1396.01 1086.5 1399.55 1086.5 1401.74 1088.67Z" stroke="white" stroke-width="1.42178"/>
<path d="M1245.26 1004.75L1217.6 977.348C1214.04 973.824 1208 976.343 1208 981.35L1208 1127.48C1208 1132.5 1214.07 1135.02 1217.62 1131.47L1351.13 997.957C1359.13 989.951 1363.59 979.066 1363.5 967.744L1363.04 909.366C1363.01 904.38 1356.99 901.899 1353.44 905.408L1253.19 1004.75C1250.99 1006.93 1247.45 1006.93 1245.26 1004.75Z" stroke="white" stroke-width="1.42178"/>
<path d="M1491.74 640.674L1519.25 667.929C1522.83 671.474 1528.9 668.901 1528.85 663.864L1527.23 517.733C1527.17 512.743 1521.14 510.283 1517.61 513.811L1385.1 646.326C1376.98 654.441 1372.52 665.508 1372.73 676.983L1373.82 736.257C1373.91 741.214 1379.9 743.645 1383.42 740.156L1483.81 640.674C1486.01 638.498 1489.55 638.498 1491.74 640.674Z" stroke="white" stroke-width="1.42178"/>
<path d="M1335.26 556.753L1307.6 529.348C1304.04 525.824 1298 528.343 1298 533.35L1298 679.483C1298 684.503 1304.07 687.017 1307.62 683.467L1441.13 549.957C1449.13 541.951 1453.59 531.066 1453.5 519.744L1453.04 461.366C1453.01 456.38 1446.99 453.899 1443.44 457.408L1343.19 556.753C1340.99 558.929 1337.45 558.929 1335.26 556.753Z" stroke="white" stroke-width="1.42178"/>
<path d="M961.743 640.674L989.248 667.929C992.826 671.474 998.903 668.901 998.848 663.864L997.229 517.733C997.174 512.743 991.139 510.283 987.611 513.811L855.097 646.325C846.981 654.441 842.516 665.508 842.727 676.983L843.818 736.257C843.91 741.214 849.896 743.645 853.417 740.155L953.812 640.674C956.008 638.498 959.547 638.498 961.743 640.674Z" stroke="white" stroke-width="1.42178"/>
<path d="M805.257 556.753L777.6 529.348C774.043 525.824 768 528.343 768 533.35L768 679.483C768 684.503 774.069 687.017 777.618 683.467L911.129 549.957C919.135 541.95 923.593 531.066 923.504 519.744L923.044 461.366C923.005 456.38 916.986 453.899 913.445 457.408L813.188 556.753C810.992 558.929 807.453 558.929 805.257 556.753Z" stroke="white" stroke-width="1.42178"/>
<path d="M1281.74 192.674L1309.25 219.929C1312.83 223.474 1318.9 220.901 1318.85 215.864L1317.23 69.7326C1317.17 64.7435 1311.14 62.283 1307.61 65.8111L1175.1 198.325C1166.98 206.441 1162.52 217.508 1162.73 228.983L1163.82 288.257C1163.91 293.214 1169.9 295.645 1173.42 292.156L1273.81 192.674C1276.01 190.498 1279.55 190.498 1281.74 192.674Z" stroke="white" stroke-width="1.42178"/>
<path d="M1125.26 108.753L1097.6 81.348C1094.04 77.8236 1088 80.343 1088 85.3501L1088 231.483C1088 236.503 1094.07 239.017 1097.62 235.467L1231.13 101.957C1239.13 93.9505 1243.59 83.0664 1243.5 71.7444L1243.04 13.3659C1243.01 8.38034 1236.99 5.89888 1233.44 9.40821L1133.19 108.753C1130.99 110.929 1127.45 110.929 1125.26 108.753Z" stroke="white" stroke-width="1.42178"/>
<path d="M751.743 192.674L779.248 219.929C782.826 223.474 788.903 220.901 788.848 215.864L787.229 69.7325C787.174 64.7434 781.139 62.2829 777.611 65.811L645.097 198.325C636.981 206.441 632.516 217.508 632.727 228.983L633.818 288.257C633.91 293.214 639.896 295.645 643.417 292.155L743.812 192.674C746.008 190.498 749.547 190.498 751.743 192.674Z" stroke="white" stroke-width="1.42178"/>
<path d="M595.257 108.753L567.6 81.3479C564.043 77.8236 558 80.3429 558 85.35L558 231.483C558 236.503 564.069 239.016 567.618 235.467L701.129 101.957C709.135 93.9505 713.593 83.0663 713.504 71.7443L713.044 13.3659C713.005 8.38027 706.986 5.89882 703.445 9.40815L603.188 108.753C600.992 110.929 597.453 110.929 595.257 108.753Z" stroke="white" stroke-width="1.42178"/>
<path d="M1040.74 210.674L1068.25 237.929C1071.83 241.474 1077.9 238.901 1077.85 233.864L1076.23 87.7326C1076.17 82.7434 1070.14 80.283 1066.61 83.811L934.097 216.325C925.982 224.441 921.516 235.508 921.727 246.983L922.818 306.257C922.91 311.214 928.896 313.645 932.417 310.155L1032.81 210.674C1035.01 208.498 1038.55 208.498 1040.74 210.674Z" stroke="white" stroke-width="1.42178"/>
<path d="M884.257 126.753L856.6 99.3479C853.043 95.8236 847 98.3429 847 103.35L847 249.483C847 254.503 853.069 257.017 856.618 253.467L990.129 119.957C998.135 111.951 1002.59 101.066 1002.5 89.7444L1002.04 31.3659C1002.01 26.3803 995.986 23.8988 992.445 27.4082L892.188 126.753C889.992 128.929 886.453 128.929 884.257 126.753Z" stroke="white" stroke-width="1.42178"/>
<path d="M1565.74 882.674L1593.25 909.929C1596.83 913.474 1602.9 910.901 1602.85 905.864L1601.23 759.733C1601.17 754.743 1595.14 752.283 1591.61 755.811L1459.1 888.326C1450.98 896.441 1446.52 907.508 1446.73 918.983L1447.82 978.257C1447.91 983.214 1453.9 985.645 1457.42 982.156L1557.81 882.674C1560.01 880.498 1563.55 880.498 1565.74 882.674Z" stroke="white" stroke-width="1.42178"/>
<path d="M1409.26 798.753L1381.6 771.348C1378.04 767.824 1372 770.343 1372 775.35L1372 921.483C1372 926.503 1378.07 929.017 1381.62 925.467L1515.13 791.957C1523.13 783.951 1527.59 773.066 1527.5 761.744L1527.04 703.366C1527.01 698.38 1520.99 695.899 1517.44 699.408L1417.19 798.753C1414.99 800.929 1411.45 800.929 1409.26 798.753Z" stroke="white" stroke-width="1.42178"/>
</g>
<g opacity="0.1">
<path d="M205.257 1051.75L177.752 1024.5C174.174 1020.95 168.096 1023.53 168.152 1028.56L169.771 1174.69C169.826 1179.68 175.86 1182.14 179.389 1178.62L311.903 1046.1C320.018 1037.99 324.484 1026.92 324.272 1015.44L323.181 956.17C323.09 951.213 317.104 948.782 313.582 952.271L213.188 1051.75C210.992 1053.93 207.453 1053.93 205.257 1051.75Z" stroke="white" stroke-width="1.42178"/>
<path d="M361.743 1135.67L389.4 1163.08C392.956 1166.6 399 1164.08 399 1159.08L399 1012.94C399 1007.92 392.931 1005.41 389.382 1008.96L255.871 1142.47C247.865 1150.48 243.407 1161.36 243.496 1172.68L243.955 1231.06C243.995 1236.05 250.013 1238.53 253.555 1235.02L353.812 1135.67C356.008 1133.5 359.547 1133.5 361.743 1135.67Z" stroke="white" stroke-width="1.42178"/>
<path d="M735.257 1051.75L707.752 1024.5C704.174 1020.95 698.096 1023.53 698.152 1028.56L699.771 1174.69C699.826 1179.68 705.86 1182.14 709.389 1178.62L841.903 1046.1C850.018 1037.99 854.484 1026.92 854.272 1015.44L853.181 956.17C853.09 951.213 847.104 948.782 843.582 952.271L743.188 1051.75C740.992 1053.93 737.453 1053.93 735.257 1051.75Z" stroke="white" stroke-width="1.42178"/>
<path d="M891.743 1135.67L919.4 1163.08C922.956 1166.6 929 1164.08 929 1159.08L929 1012.94C929 1007.92 922.931 1005.41 919.382 1008.96L785.871 1142.47C777.865 1150.48 773.407 1161.36 773.496 1172.68L773.955 1231.06C773.995 1236.05 780.014 1238.53 783.555 1235.02L883.812 1135.67C886.008 1133.5 889.547 1133.5 891.743 1135.67Z" stroke="white" stroke-width="1.42178"/>
<path d="M358.257 820.753L330.752 793.498C327.174 789.953 321.096 792.526 321.152 797.563L322.771 943.694C322.826 948.684 328.86 951.144 332.389 947.616L464.903 815.101C473.018 806.986 477.484 795.919 477.272 784.444L476.181 725.17C476.09 720.213 470.104 717.782 466.582 721.271L366.188 820.753C363.992 822.929 360.453 822.929 358.257 820.753Z" stroke="white" stroke-width="1.42178"/>
<path d="M514.743 904.674L542.4 932.079C545.956 935.603 552 933.084 552 928.077L552 781.944C552 776.924 545.931 774.41 542.382 777.96L408.871 911.47C400.865 919.476 396.407 930.361 396.496 941.683L396.955 1000.06C396.995 1005.05 403.014 1007.53 406.555 1004.02L506.812 904.674C509.008 902.498 512.547 902.498 514.743 904.674Z" stroke="white" stroke-width="1.42178"/>
<path d="M888.257 820.753L860.752 793.498C857.174 789.953 851.096 792.526 851.152 797.563L852.771 943.694C852.826 948.684 858.86 951.144 862.389 947.616L994.903 815.101C1003.02 806.986 1007.48 795.919 1007.27 784.444L1006.18 725.17C1006.09 720.213 1000.1 717.782 996.582 721.271L896.188 820.753C893.992 822.929 890.453 822.929 888.257 820.753Z" stroke="white" stroke-width="1.42178"/>
<path d="M1044.74 904.674L1072.4 932.079C1075.96 935.603 1082 933.084 1082 928.077L1082 781.944C1082 776.924 1075.93 774.41 1072.38 777.96L938.871 911.47C930.865 919.476 926.407 930.361 926.496 941.683L926.955 1000.06C926.995 1005.05 933.014 1007.53 936.555 1004.02L1036.81 904.674C1039.01 902.498 1042.55 902.498 1044.74 904.674Z" stroke="white" stroke-width="1.42178"/>
<path d="M474.257 1023.75L446.752 996.498C443.174 992.953 437.096 995.526 437.152 1000.56L438.771 1146.69C438.826 1151.68 444.86 1154.14 448.389 1150.62L580.903 1018.1C589.018 1009.99 593.484 998.919 593.272 987.444L592.181 928.17C592.09 923.213 586.104 920.782 582.582 924.271L482.188 1023.75C479.992 1025.93 476.453 1025.93 474.257 1023.75Z" stroke="white" stroke-width="1.42178"/>
<path d="M630.743 1107.67L658.4 1135.08C661.956 1138.6 668 1136.08 668 1131.08L668 984.944C668 979.924 661.931 977.41 658.382 980.96L524.871 1114.47C516.865 1122.48 512.407 1133.36 512.496 1144.68L512.955 1203.06C512.995 1208.05 519.014 1210.53 522.555 1207.02L622.812 1107.67C625.008 1105.5 628.547 1105.5 630.743 1107.67Z" stroke="white" stroke-width="1.42178"/>
<path d="M1004.26 1023.75L976.752 996.498C973.174 992.953 967.096 995.526 967.152 1000.56L968.771 1146.69C968.826 1151.68 974.86 1154.14 978.389 1150.62L1110.9 1018.1C1119.02 1009.99 1123.48 998.919 1123.27 987.444L1122.18 928.17C1122.09 923.213 1116.1 920.782 1112.58 924.271L1012.19 1023.75C1009.99 1025.93 1006.45 1025.93 1004.26 1023.75Z" stroke="white" stroke-width="1.42178"/>
<path d="M1160.74 1107.67L1188.4 1135.08C1191.96 1138.6 1198 1136.08 1198 1131.08L1198 984.944C1198 979.924 1191.93 977.41 1188.38 980.96L1054.87 1114.47C1046.86 1122.48 1042.41 1133.36 1042.5 1144.68L1042.96 1203.06C1042.99 1208.05 1049.01 1210.53 1052.56 1207.02L1152.81 1107.67C1155.01 1105.5 1158.55 1105.5 1160.74 1107.67Z" stroke="white" stroke-width="1.42178"/>
<path d="M280.257 595.753L252.752 568.498C249.174 564.953 243.096 567.526 243.152 572.563L244.771 718.694C244.826 723.684 250.86 726.144 254.389 722.616L386.903 590.101C395.018 581.986 399.484 570.919 399.272 559.444L398.181 500.17C398.09 495.213 392.104 492.782 388.582 496.271L288.188 595.753C285.992 597.929 282.453 597.929 280.257 595.753Z" stroke="white" stroke-width="1.42178"/>
<path d="M436.743 679.674L464.4 707.079C467.956 710.603 474 708.084 474 703.077L474 556.944C474 551.924 467.931 549.41 464.382 552.96L330.871 686.47C322.865 694.476 318.407 705.361 318.496 716.683L318.955 775.061C318.995 780.047 325.013 782.528 328.555 779.019L428.812 679.674C431.008 677.498 434.547 677.498 436.743 679.674Z" stroke="white" stroke-width="1.42178"/>
<path d="M202.257 372.753L174.752 345.498C171.174 341.953 165.096 344.526 165.152 349.563L166.771 495.694C166.826 500.684 172.86 503.144 176.389 499.616L308.903 367.101C317.018 358.986 321.484 347.919 321.272 336.444L320.181 277.17C320.09 272.213 314.104 269.782 310.582 273.271L210.188 372.753C207.992 374.929 204.453 374.929 202.257 372.753Z" stroke="white" stroke-width="1.42178"/>
<path d="M358.743 456.674L386.4 484.079C389.956 487.603 396 485.084 396 480.077L396 333.944C396 328.924 389.931 326.41 386.382 329.96L252.871 463.47C244.865 471.476 240.407 482.361 240.496 493.683L240.955 552.061C240.995 557.047 247.013 559.528 250.555 556.019L350.812 456.674C353.008 454.498 356.547 454.498 358.743 456.674Z" stroke="white" stroke-width="1.42178"/>
<path d="M112.257 820.753L84.7516 793.498C81.1735 789.953 75.0963 792.526 75.1521 797.563L76.7708 943.694C76.826 948.684 82.8604 951.144 86.3885 947.616L218.903 815.101C227.018 806.986 231.484 795.919 231.272 784.444L230.181 725.17C230.09 720.213 224.104 717.782 220.582 721.271L120.188 820.753C117.992 822.929 114.453 822.929 112.257 820.753Z" stroke="white" stroke-width="1.42178"/>
<path d="M268.743 904.674L296.4 932.079C299.956 935.603 306 933.084 306 928.077L306 781.944C306 776.924 299.931 774.41 296.382 777.96L162.871 911.47C154.865 919.476 150.407 930.361 150.496 941.683L150.955 1000.06C150.995 1005.05 157.013 1007.53 160.555 1004.02L260.812 904.674C263.008 902.498 266.547 902.498 268.743 904.674Z" stroke="white" stroke-width="1.42178"/>
<path d="M642.257 820.753L614.752 793.498C611.174 789.953 605.096 792.526 605.152 797.563L606.771 943.694C606.826 948.684 612.86 951.144 616.389 947.616L748.903 815.101C757.018 806.986 761.484 795.919 761.272 784.444L760.181 725.17C760.09 720.213 754.104 717.782 750.582 721.271L650.188 820.753C647.992 822.929 644.453 822.929 642.257 820.753Z" stroke="white" stroke-width="1.42178"/>
<path d="M798.743 904.674L826.4 932.079C829.956 935.603 836 933.084 836 928.077L836 781.944C836 776.924 829.931 774.41 826.382 777.96L692.871 911.47C684.865 919.476 680.407 930.361 680.496 941.683L680.955 1000.06C680.995 1005.05 687.014 1007.53 690.555 1004.02L790.812 904.674C793.008 902.498 796.547 902.498 798.743 904.674Z" stroke="white" stroke-width="1.42178"/>
<path d="M322.257 1268.75L294.752 1241.5C291.174 1237.95 285.096 1240.53 285.152 1245.56L286.771 1391.69C286.826 1396.68 292.86 1399.14 296.389 1395.62L428.903 1263.1C437.018 1254.99 441.484 1243.92 441.272 1232.44L440.181 1173.17C440.09 1168.21 434.104 1165.78 430.582 1169.27L330.188 1268.75C327.992 1270.93 324.453 1270.93 322.257 1268.75Z" stroke="white" stroke-width="1.42178"/>
<path d="M478.743 1352.67L506.4 1380.08C509.956 1383.6 516 1381.08 516 1376.08L516 1229.94C516 1224.92 509.931 1222.41 506.382 1225.96L372.871 1359.47C364.865 1367.48 360.407 1378.36 360.496 1389.68L360.955 1448.06C360.995 1453.05 367.013 1455.53 370.555 1452.02L470.812 1352.67C473.008 1350.5 476.547 1350.5 478.743 1352.67Z" stroke="white" stroke-width="1.42178"/>
<path d="M852.257 1268.75L824.752 1241.5C821.174 1237.95 815.096 1240.53 815.152 1245.56L816.771 1391.69C816.826 1396.68 822.86 1399.14 826.389 1395.62L958.903 1263.1C967.018 1254.99 971.484 1243.92 971.272 1232.44L970.181 1173.17C970.09 1168.21 964.104 1165.78 960.582 1169.27L860.188 1268.75C857.992 1270.93 854.453 1270.93 852.257 1268.75Z" stroke="white" stroke-width="1.42178"/>
<path d="M1008.74 1352.67L1036.4 1380.08C1039.96 1383.6 1046 1381.08 1046 1376.08L1046 1229.94C1046 1224.92 1039.93 1222.41 1036.38 1225.96L902.871 1359.47C894.865 1367.48 890.407 1378.36 890.496 1389.68L890.955 1448.06C890.995 1453.05 897.014 1455.53 900.555 1452.02L1000.81 1352.67C1003.01 1350.5 1006.55 1350.5 1008.74 1352.67Z" stroke="white" stroke-width="1.42178"/>
<path d="M563.257 1250.75L535.752 1223.5C532.174 1219.95 526.096 1222.53 526.152 1227.56L527.771 1373.69C527.826 1378.68 533.86 1381.14 537.389 1377.62L669.903 1245.1C678.018 1236.99 682.484 1225.92 682.272 1214.44L681.181 1155.17C681.09 1150.21 675.104 1147.78 671.582 1151.27L571.188 1250.75C568.992 1252.93 565.453 1252.93 563.257 1250.75Z" stroke="white" stroke-width="1.42178"/>
<path d="M719.743 1334.67L747.4 1362.08C750.956 1365.6 757 1363.08 757 1358.08L757 1211.94C757 1206.92 750.931 1204.41 747.382 1207.96L613.871 1341.47C605.865 1349.48 601.407 1360.36 601.496 1371.68L601.955 1430.06C601.995 1435.05 608.014 1437.53 611.555 1434.02L711.812 1334.67C714.008 1332.5 717.547 1332.5 719.743 1334.67Z" stroke="white" stroke-width="1.42178"/>
<path d="M38.2566 578.753L10.7516 551.498C7.17351 547.953 1.09627 550.526 1.15206 555.563L2.77078 701.694C2.82604 706.684 8.86045 709.144 12.3885 705.616L144.903 573.101C153.018 564.986 157.484 553.919 157.272 542.444L156.181 483.17C156.09 478.213 150.104 475.782 146.582 479.271L46.188 578.753C43.992 580.929 40.4526 580.929 38.2566 578.753Z" stroke="white" stroke-width="1.42178"/>
<path d="M194.743 662.674L222.4 690.079C225.956 693.603 232 691.084 232 686.077L232 539.944C232 534.924 225.931 532.41 222.382 535.96L88.8709 669.47C80.8648 677.476 76.4065 688.361 76.4957 699.683L76.9553 758.061C76.9946 763.047 83.0135 765.528 86.555 762.019L186.812 662.674C189.008 660.498 192.547 660.498 194.743 662.674Z" stroke="white" stroke-width="1.42178"/>
</g>
</svg>
